<svg id="visual" viewBox="0 0 900 600" width="900" height="600" xmlns="http://www.w3.org/2000/svg" xmlns:xlink="http://www.w3.org/1999/xlink" version="1.1"><path d="M0 121L13.7 121C27.3 121 54.7 121 82 117C109.3 113 136.7 105 163.8 114C191 123 218 149 245.2 155C272.3 161 299.7 147 327 131C354.3 115 381.7 97 409 98C436.3 99 463.7 119 491 130C518.3 141 545.7 143 573 146C600.3 149 627.7 153 654.8 155C682 157 709 157 736.2 144C763.3 131 790.7 105 818 100C845.3 95 872.7 111 886.3 119L900 127L900 0L886.3 0C872.7 0 845.3 0 818 0C790.7 0 763.3 0 736.2 0C709 0 682 0 654.8 0C627.7 0 600.3 0 573 0C545.7 0 518.3 0 491 0C463.7 0 436.3 0 409 0C381.7 0 354.3 0 327 0C299.7 0 272.3 0 245.2 0C218 0 191 0 163.8 0C136.7 0 109.3 0 82 0C54.7 0 27.3 0 13.7 0L0 0Z" fill="#000e99"></path><path d="M0 163L13.7 175C27.3 187 54.7 211 82 208C109.3 205 136.7 175 163.8 172C191 169 218 193 245.2 212C272.3 231 299.7 245 327 242C354.3 239 381.7 219 409 208C436.3 197 463.7 195 491 208C518.3 221 545.7 249 573 249C600.3 249 627.7 221 654.8 218C682 215 709 237 736.2 234C763.3 231 790.7 203 818 201C845.3 199 872.7 223 886.3 235L900 247L900 125L886.3 117C872.7 109 845.3 93 818 98C790.7 103 763.3 129 736.2 142C709 155 682 155 654.8 153C627.7 151 600.3 147 573 144C545.7 141 518.3 139 491 128C463.7 117 436.3 97 409 96C381.7 95 354.3 113 327 129C299.7 145 272.3 159 245.2 153C218 147 191 121 163.8 112C136.7 103 109.3 111 82 115C54.7 119 27.3 119 13.7 119L0 119Z" fill="#00b3ff"></path><path d="M0 283L13.7 290C27.3 297 54.7 311 82 312C109.3 313 136.7 301 163.8 299C191 297 218 305 245.2 317C272.3 329 299.7 345 327 364C354.3 383 381.7 405 409 408C436.3 411 463.7 395 491 404C518.3 413 545.7 447 573 452C600.3 457 627.7 433 654.8 419C682 405 709 401 736.2 393C763.3 385 790.7 373 818 371C845.3 369 872.7 377 886.3 381L900 385L900 245L886.3 233C872.7 221 845.3 197 818 199C790.7 201 763.3 229 736.2 232C709 235 682 213 654.8 216C627.7 219 600.3 247 573 247C545.7 247 518.3 219 491 206C463.7 193 436.3 195 409 206C381.7 217 354.3 237 327 240C299.7 243 272.3 229 245.2 210C218 191 191 167 163.8 170C136.7 173 109.3 203 82 206C54.7 209 27.3 185 13.7 173L0 161Z" fill="#00fff0"></path><path d="M0 379L13.7 384C27.3 389 54.7 399 82 400C109.3 401 136.7 393 163.8 386C191 379 218 373 245.2 379C272.3 385 299.7 403 327 425C354.3 447 381.7 473 409 482C436.3 491 463.7 483 491 486C518.3 489 545.7 503 573 509C600.3 515 627.7 513 654.8 499C682 485 709 459 736.2 449C763.3 439 790.7 445 818 444C845.3 443 872.7 435 886.3 431L900 427L900 383L886.3 379C872.7 375 845.3 367 818 369C790.7 371 763.3 383 736.2 391C709 399 682 403 654.8 417C627.7 431 600.3 455 573 450C545.7 445 518.3 411 491 402C463.7 393 436.3 409 409 406C381.7 403 354.3 381 327 362C299.7 343 272.3 327 245.2 315C218 303 191 295 163.8 297C136.7 299 109.3 311 82 310C54.7 309 27.3 295 13.7 288L0 281Z" fill="#00b3ff"></path><path d="M0 601L13.7 601C27.3 601 54.7 601 82 601C109.3 601 136.7 601 163.8 601C191 601 218 601 245.2 601C272.3 601 299.7 601 327 601C354.3 601 381.7 601 409 601C436.3 601 463.7 601 491 601C518.3 601 545.7 601 573 601C600.3 601 627.7 601 654.8 601C682 601 709 601 736.2 601C763.3 601 790.7 601 818 601C845.3 601 872.7 601 886.3 601L900 601L900 425L886.3 429C872.7 433 845.3 441 818 442C790.7 443 763.3 437 736.2 447C709 457 682 483 654.8 497C627.7 511 600.3 513 573 507C545.7 501 518.3 487 491 484C463.7 481 436.3 489 409 480C381.7 471 354.3 445 327 423C299.7 401 272.3 383 245.2 377C218 371 191 377 163.8 384C136.7 391 109.3 399 82 398C54.7 397 27.3 387 13.7 382L0 377Z" fill="#000e99"></path></svg>